<svg xmlns="http://www.w3.org/2000/svg" width="420" height="420" viewBox="0 0 420 420"><rect width="420" height="420" fill="#faf8f3"/><polyline points="276.5,79.3 264.0,74.4 252.9,76.6 258.8,41.4 228.8,20.4 248.7,28.2 254.4,33.4 261.3,39.3 276.5,40.8 354.6,33.1 357.0,53.8 363.9,162.6 294.8,144.4 259.1,132.8 212.8,165.7 194.6,217.8 233.0,256.6 265.8,247.1 310.2,245.3 340.5,200.8 351.8,199.4 402.3,198.5 390.6,185.2 381.0,212.7 395.4,218.2 367.0,236.8 338.7,238.5 349.9,390.3 357.8,396.5 348.3,400.5 347.3,400.0 293.1,373.4 280.6,376.4 294.9,357.0 262.3,352.8 219.0,303.6 242.7,366.8 212.1,403.4 188.5,379.0 137.8,388.0 32.5,352.7 21.1,340.9 50.3,326.6 23.8,254.9 108.3,227.2 130.0,314.3 169.2,326.8 183.3,295.5 177.1,241.0 152.2,243.0 159.5,250.3 92.6,174.3 108.2,132.8 68.8,100.2 116.6,106.9 136.2,45.9 126.6,40.6 132.9,28.0 175.3,74.5 293.0,97.9 276.5,79.3" fill="none" stroke="#5f7a3d" stroke-width="1.6"/><circle cx="276.5" cy="79.3" r="3" fill="#b65c38"/><circle cx="264.0" cy="74.4" r="3" fill="#b65c38"/><circle cx="252.9" cy="76.6" r="3" fill="#b65c38"/><circle cx="258.8" cy="41.4" r="3" fill="#b65c38"/><circle cx="228.8" cy="20.4" r="3" fill="#b65c38"/><circle cx="248.7" cy="28.2" r="3" fill="#b65c38"/><circle cx="254.4" cy="33.4" r="3" fill="#b65c38"/><circle cx="261.3" cy="39.3" r="3" fill="#b65c38"/><circle cx="276.5" cy="40.8" r="3" fill="#b65c38"/><circle cx="354.6" cy="33.1" r="3" fill="#b65c38"/><circle cx="357.0" cy="53.8" r="3" fill="#b65c38"/><circle cx="363.9" cy="162.6" r="3" fill="#b65c38"/><circle cx="294.8" cy="144.4" r="3" fill="#b65c38"/><circle cx="259.1" cy="132.8" r="3" fill="#b65c38"/><circle cx="212.8" cy="165.7" r="3" fill="#b65c38"/><circle cx="194.6" cy="217.8" r="3" fill="#b65c38"/><circle cx="233.0" cy="256.6" r="3" fill="#b65c38"/><circle cx="265.8" cy="247.1" r="3" fill="#b65c38"/><circle cx="310.2" cy="245.3" r="3" fill="#b65c38"/><circle cx="340.5" cy="200.8" r="3" fill="#b65c38"/><circle cx="351.8" cy="199.4" r="3" fill="#b65c38"/><circle cx="402.3" cy="198.5" r="3" fill="#b65c38"/><circle cx="390.6" cy="185.2" r="3" fill="#b65c38"/><circle cx="381.0" cy="212.7" r="3" fill="#b65c38"/><circle cx="395.4" cy="218.2" r="3" fill="#b65c38"/><circle cx="367.0" cy="236.8" r="3" fill="#b65c38"/><circle cx="338.7" cy="238.5" r="3" fill="#b65c38"/><circle cx="349.9" cy="390.3" r="3" fill="#b65c38"/><circle cx="357.8" cy="396.5" r="3" fill="#b65c38"/><circle cx="348.3" cy="400.5" r="3" fill="#b65c38"/><circle cx="347.3" cy="400.0" r="3" fill="#b65c38"/><circle cx="293.1" cy="373.4" r="3" fill="#b65c38"/><circle cx="280.6" cy="376.4" r="3" fill="#b65c38"/><circle cx="294.9" cy="357.0" r="3" fill="#b65c38"/><circle cx="262.3" cy="352.8" r="3" fill="#b65c38"/><circle cx="219.0" cy="303.6" r="3" fill="#b65c38"/><circle cx="242.7" cy="366.8" r="3" fill="#b65c38"/><circle cx="212.1" cy="403.4" r="3" fill="#b65c38"/><circle cx="188.5" cy="379.0" r="3" fill="#b65c38"/><circle cx="137.8" cy="388.0" r="3" fill="#b65c38"/><circle cx="32.5" cy="352.7" r="3" fill="#b65c38"/><circle cx="21.1" cy="340.9" r="3" fill="#b65c38"/><circle cx="50.3" cy="326.6" r="3" fill="#b65c38"/><circle cx="23.8" cy="254.9" r="3" fill="#b65c38"/><circle cx="108.3" cy="227.2" r="3" fill="#b65c38"/><circle cx="130.0" cy="314.3" r="3" fill="#b65c38"/><circle cx="169.2" cy="326.8" r="3" fill="#b65c38"/><circle cx="183.3" cy="295.5" r="3" fill="#b65c38"/><circle cx="177.1" cy="241.0" r="3" fill="#b65c38"/><circle cx="152.2" cy="243.0" r="3" fill="#b65c38"/><circle cx="159.5" cy="250.3" r="3" fill="#b65c38"/><circle cx="92.6" cy="174.3" r="3" fill="#b65c38"/><circle cx="108.2" cy="132.8" r="3" fill="#b65c38"/><circle cx="68.8" cy="100.2" r="3" fill="#b65c38"/><circle cx="116.6" cy="106.9" r="3" fill="#b65c38"/><circle cx="136.2" cy="45.9" r="3" fill="#b65c38"/><circle cx="126.6" cy="40.6" r="3" fill="#b65c38"/><circle cx="132.9" cy="28.0" r="3" fill="#b65c38"/><circle cx="175.3" cy="74.5" r="3" fill="#b65c38"/><circle cx="293.0" cy="97.9" r="3" fill="#b65c38"/></svg>